<svg width="255" height="170" viewBox="0 0 255 170" fill="none" xmlns="http://www.w3.org/2000/svg">
    <g clip-path="url(#clip0_0_1)">
        <path d="M221.235 64.5486H100.229V14.5519H109.684L105.625 0.451172L123.803 14.5519H221.235V64.5486Z" fill="#C1B1FF"/>
        <path d="M217.458 65H96.4502C96.2017 65 96 64.7978 96 64.5487V14.552C96 14.3029 96.2017 14.1007 96.4502 14.1007H105.307L101.414 0.575866C101.361 0.387993 101.433 0.187867 101.594 0.077594C101.755 -0.0326794 101.968 -0.0265531 102.121 0.0939308L120.179 14.1027H217.458C217.707 14.1027 217.909 14.3049 217.909 14.554V64.5507C217.909 64.7999 217.707 65.002 217.458 65.002V65ZM96.8983 64.0994H217.008V15.0033H120.024C119.925 15.0033 119.829 14.9706 119.749 14.9094L102.659 1.65205L106.338 14.4274C106.377 14.5642 106.35 14.7092 106.264 14.8236C106.179 14.9359 106.047 15.0033 105.906 15.0033H96.8983V64.0994Z" fill="#8088BC"/>
        <path d="M107.057 57.1885L171.746 57.1885V45.4158L107.057 45.4158V57.1885Z" fill="#A5FFD6"/>
        <path d="M186.095 57.1885H207.412V45.4158H186.095V57.1885Z" fill="#A5FFD6"/>
        <path d="M138.665 39.1135H107.053C106.804 39.1135 106.603 38.9114 106.603 38.6622C106.603 38.4131 106.804 38.2109 107.053 38.2109H138.665C138.914 38.2109 139.115 38.4131 139.115 38.6622C139.115 38.9114 138.914 39.1135 138.665 39.1135Z" fill="#B9DCDE"/>
        <path d="M207.412 39.1135H149.973C149.724 39.1135 149.522 38.9114 149.522 38.6622C149.522 38.4131 149.724 38.2109 149.973 38.2109H207.412C207.661 38.2109 207.862 38.4131 207.862 38.6622C207.862 38.9114 207.661 39.1135 207.412 39.1135Z" fill="#B9DCDE"/>
        <path d="M124.172 32.5755H107.053C106.804 32.5755 106.603 32.3733 106.603 32.1242C106.603 31.875 106.804 31.6729 107.053 31.6729H124.172C124.42 31.6729 124.622 31.875 124.622 32.1242C124.622 32.3733 124.42 32.5755 124.172 32.5755Z" fill="#B9DCDE"/>
        <path d="M178.419 32.5755H129.246C128.998 32.5755 128.796 32.3733 128.796 32.1242C128.796 31.875 128.998 31.6729 129.246 31.6729H178.419C178.668 31.6729 178.87 31.875 178.87 32.1242C178.87 32.3733 178.668 32.5755 178.419 32.5755Z" fill="#B9DCDE"/>
        <path d="M207.412 32.5755H185.294C185.045 32.5755 184.844 32.3733 184.844 32.1242C184.844 31.875 185.045 31.6729 185.294 31.6729H207.412C207.66 31.6729 207.862 31.875 207.862 32.1242C207.862 32.3733 207.66 32.5755 207.412 32.5755Z" fill="#B9DCDE"/>
        <path d="M119.15 26.0384H107.053C106.804 26.0384 106.603 25.8362 106.603 25.587C106.603 25.3379 106.804 25.1357 107.053 25.1357H119.15C119.399 25.1357 119.601 25.3379 119.601 25.587C119.601 25.8362 119.399 26.0384 119.15 26.0384Z" fill="#B9DCDE"/>
        <path d="M158.062 26.0384H124.172C123.923 26.0384 123.722 25.8362 123.722 25.587C123.722 25.3379 123.923 25.1357 124.172 25.1357H158.062C158.31 25.1357 158.512 25.3379 158.512 25.587C158.512 25.8362 158.31 26.0384 158.062 26.0384Z" fill="#B9DCDE"/>
        <path d="M187.853 26.0384H161.777C161.529 26.0384 161.327 25.8362 161.327 25.587C161.327 25.3379 161.529 25.1357 161.777 25.1357H187.853C188.102 25.1357 188.303 25.3379 188.303 25.587C188.303 25.8362 188.102 26.0384 187.853 26.0384Z" fill="#B9DCDE"/>
        <path d="M231.32 38.9812C231.601 38.0745 232.344 35.7077 232.344 35.7077C232.344 35.7077 234.536 36.4796 235.442 36.7594C236.87 37.2025 238.227 37.3843 239.512 37.3046C240.798 37.225 241.93 36.8023 242.91 36.0345C243.892 35.2687 244.629 34.0822 245.126 32.4751C245.493 31.2886 245.53 30.1512 245.234 29.0648C244.939 27.9784 244.377 27.0186 243.546 26.1875C242.715 25.3563 241.672 24.7457 240.417 24.3557C239.441 24.0535 238.474 23.9452 237.512 24.029C236.551 24.1127 235.63 24.3434 234.75 24.7212C234.041 25.0378 233.031 25.6545 233.031 25.6545L229.637 20.1816C229.637 20.1816 230.313 19.6139 231.273 19.1075C232.925 18.2049 234.707 17.6576 236.618 17.4657C238.529 17.2737 240.441 17.4759 242.358 18.0701C244.762 18.8155 246.76 20.0387 248.355 21.7377C249.948 23.4368 251.036 25.391 251.612 27.5985C252.191 29.8061 252.117 32.0789 251.396 34.4192C250.857 36.1652 250.119 37.6293 249.18 38.8117C248.243 39.9941 247.145 40.9171 245.892 41.5788C244.638 42.2424 243.285 42.6631 241.837 42.8449C240.386 43.0266 238.922 43.0041 237.349 42.7836C237.198 42.7489 237.035 42.7182 237.037 42.7121L235.383 48.0767L229.215 46.0734L231.32 38.9792V38.9812ZM229.083 56.4248C228.073 56.1103 227.38 55.5998 227.009 54.8912C226.637 54.1826 226.606 53.3229 226.92 52.31L227.195 51.4196C227.506 50.4067 228.018 49.7145 228.724 49.3408C229.431 48.9671 230.289 48.9364 231.301 49.2509L231.982 49.4613C232.992 49.7737 233.683 50.2863 234.055 50.9949C234.428 51.7035 234.459 52.5652 234.145 53.5761L233.87 54.4664C233.556 55.4793 233.047 56.1716 232.34 56.5453C231.633 56.919 230.774 56.9496 229.763 56.6351L229.083 56.4248Z" fill="#FFEFE5"/>
        <path d="M229.595 55.829C229.15 55.829 228.676 55.7514 228.173 55.5941L227.494 55.3838C226.37 55.0346 225.582 54.4444 225.156 53.6296C224.726 52.8169 224.685 51.8326 225.034 50.7054L225.309 49.815C225.657 48.6898 226.246 47.8995 227.058 47.4707C227.871 47.0418 228.853 46.9989 229.978 47.3481L230.656 47.5585C231.778 47.9077 232.567 48.4978 232.994 49.3126C233.424 50.1295 233.465 51.1138 233.117 52.239L232.842 53.1293C232.493 54.2566 231.905 55.0448 231.092 55.4737C230.644 55.7105 230.143 55.829 229.595 55.829ZM228.558 48.0159C228.154 48.0159 227.794 48.0996 227.476 48.2671C226.873 48.5857 226.445 49.1799 226.166 50.0805L225.891 50.9708C225.612 51.8734 225.633 52.6065 225.95 53.209C226.268 53.8134 226.861 54.2423 227.761 54.522L228.44 54.7324C229.34 55.0121 230.069 54.9917 230.674 54.6732C231.277 54.3546 231.705 53.7603 231.984 52.8598L232.259 51.9694C232.538 51.0688 232.518 50.3357 232.2 49.7313C231.882 49.1268 231.289 48.698 230.389 48.4182L229.711 48.2079C229.297 48.0792 228.912 48.0159 228.558 48.0159ZM233.929 47.0602C233.882 47.0602 233.836 47.052 233.791 47.0377L227.623 45.0344C227.391 44.9589 227.26 44.7118 227.329 44.477L229.434 37.3827V37.3786C229.715 36.4699 230.458 34.1031 230.458 34.1031C230.495 33.9867 230.576 33.8907 230.686 33.8356C230.794 33.7804 230.921 33.7723 231.037 33.8131C231.059 33.8213 233.233 34.585 234.119 34.8607C235.49 35.2855 236.806 35.4611 238.028 35.3855C239.215 35.312 240.275 34.9158 241.177 34.2093C242.079 33.5048 242.774 32.3816 243.24 30.8725C243.579 29.7738 243.615 28.712 243.344 27.7134C243.071 26.7087 242.542 25.8081 241.772 25.0362C240.998 24.2602 240.008 23.6823 238.828 23.3167C237.916 23.0329 236.995 22.9287 236.095 23.0084C235.186 23.088 234.302 23.3106 233.471 23.6659C232.803 23.9641 231.819 24.5644 231.809 24.5706C231.599 24.6992 231.324 24.6339 231.194 24.4235L227.8 18.9507C227.682 18.7608 227.723 18.5117 227.894 18.3667C227.922 18.3422 228.619 17.7622 229.609 17.2394C231.302 16.3144 233.159 15.7446 235.119 15.5486C237.085 15.3525 239.073 15.5629 241.036 16.1714C243.503 16.9372 245.587 18.2115 247.227 19.9616C248.865 21.7076 249.997 23.7456 250.592 26.0164C251.189 28.2954 251.114 30.6744 250.37 33.0841C249.816 34.877 249.044 36.4045 248.076 37.6237C247.103 38.8489 245.95 39.821 244.646 40.5092C243.35 41.1933 241.933 41.6364 240.436 41.8243C238.971 42.0081 237.484 41.9897 235.891 41.7712L234.357 46.7437C234.322 46.858 234.241 46.954 234.135 47.0112C234.07 47.0439 233.999 47.0623 233.927 47.0623L233.929 47.0602ZM228.317 44.3115L233.634 46.0392L235.154 41.1116C235.209 40.936 235.363 40.8093 235.547 40.795C235.608 40.791 235.669 40.7991 235.726 40.8175L235.995 40.8767C237.494 41.085 238.922 41.1054 240.326 40.9298C241.715 40.7562 243.027 40.3458 244.228 39.7107C245.422 39.0797 246.479 38.1893 247.376 37.0621C248.274 35.9308 248.993 34.5013 249.514 32.8166C250.207 30.5703 250.278 28.3587 249.726 26.2451C249.17 24.1213 248.109 22.214 246.575 20.5783C245.041 18.9446 243.09 17.75 240.774 17.0311C238.926 16.4573 237.054 16.2592 235.211 16.4451C233.369 16.6289 231.627 17.1639 230.035 18.0338C229.501 18.3156 229.057 18.6179 228.782 18.82L231.727 23.572C232.094 23.3576 232.658 23.0431 233.115 22.8389C234.041 22.4427 235.017 22.1977 236.021 22.1098C237.038 22.022 238.073 22.1384 239.099 22.455C240.419 22.8634 241.533 23.5189 242.411 24.397C243.295 25.2812 243.903 26.3166 244.216 27.4744C244.532 28.6405 244.493 29.8719 244.104 31.1359C243.583 32.8247 242.786 34.097 241.735 34.9179C240.686 35.7388 239.458 36.1983 238.089 36.282C236.755 36.3657 235.333 36.1758 233.858 35.7184C233.194 35.5121 231.872 35.0547 231.181 34.8137C230.953 35.5428 230.503 36.9784 230.297 37.64L228.319 44.3095L228.317 44.3115Z" fill="#FF9D60"/>
    </g>
    <path d="M21.2002 31.2073C19.5987 23.8618 27.1403 22.1867 27.1403 22.1867C15.4071 3.17335 3.93534 18.3792 2.15411 25.8963C-0.182733 35.7257 3.7229 53.1785 8.87866 54.3142L10.0144 52.7945L11.575 55.0333C14.5982 56.4141 22.1643 57.4682 24.1253 56.6102C24.1253 56.6102 21.2982 31.6567 21.2002 31.2073Z" fill="#46171F"/>
    <path d="M44.6833 50.3758L45.6066 64.5439C44.9611 65.9329 39.3315 66.0637 29.0771 62.3051L29.9024 49.2891C29.9024 49.2891 35.5321 50.2614 44.6833 50.3758Z" fill="#FDD7D4"/>
    <path d="M44.756 51.3725L45.1645 57.6558C37.5412 60.3604 37.198 50.0407 37.2144 50.0488C41.0546 51.3807 43.6938 51.8546 44.756 51.3725Z" fill="#101C3A"/>
    <path d="M46.4477 55.2212C42.1581 56.0383 33.1947 51.7405 30.6945 48.1699C29.8039 46.8952 27.2546 24.5318 31.3155 22.1378C33.0232 21.1328 44.8136 20.8713 46.5376 20.5363C50.4923 19.7601 52.486 29.6467 53.638 35.3254C54.9372 41.6986 54.0139 53.7913 46.4477 55.2294V55.2212Z" fill="#FDD7D4"/>
    <path d="M30.8816 53.0397C32.2788 52.0919 33.7413 51.234 35.2366 50.4414C36.6338 46.0292 39.5753 36.9025 40.6865 34.6637C41.7895 32.4494 46.3734 43.6188 46.3734 43.6188C47.9993 36.3632 45.8668 29.9982 48.6939 27.8738C51.717 25.6023 54.4216 13.7792 41.6506 16.2958C34.7382 17.6603 25.3908 14.2449 20.9214 23.7393C14.6707 37.0087 31.5025 48.9789 30.8816 53.0316V53.0397Z" fill="#46171F"/>
    <path d="M42.4036 35.9547C43.4904 37.9238 42.7795 40.4077 40.8022 41.4945C38.833 42.5812 36.3491 41.8703 35.2624 39.893C34.1757 37.9238 34.8865 35.4399 36.8639 34.3532C38.833 33.2665 41.3169 33.9773 42.4036 35.9547Z" fill="#FDD7D4"/>
    <path d="M39.3071 40.9143C38.8495 41.0042 38.3429 40.9388 37.9834 40.8408L38.1877 40.1136C38.1877 40.1136 39.4215 40.4404 39.6421 39.8194C39.7074 39.6397 39.7074 39.6396 39.4051 39.4436C39.0456 39.2148 38.5063 38.8716 38.5145 37.932C38.5145 37.2865 38.776 36.8534 38.9639 36.5429C39.2254 36.1017 39.2907 35.9955 38.6779 35.4807C38.5063 35.3337 38.3266 35.2846 38.1305 35.3255C37.3297 35.4807 36.4146 36.8616 36.1286 37.3845L35.4668 37.025C35.5894 36.8044 36.6924 34.8434 37.9834 34.5901H37.9916C38.4165 34.5084 38.825 34.6146 39.1682 34.9088C40.1895 35.7667 39.9852 36.306 39.6176 36.9351C39.4541 37.2129 39.2744 37.5071 39.2744 37.9483C39.2744 38.4712 39.5113 38.6265 39.8218 38.8144C40.1241 39.0023 40.6307 39.3292 40.3611 40.0727C40.1813 40.5875 39.7728 40.8326 39.3152 40.9225L39.3071 40.9143Z" fill="#9D6266"/>
    <path d="M47.0445 82.7405C59.4314 101.623 66.777 119.836 66.777 119.836C61.9889 130.156 34.4942 141.243 28.4397 142.101C1.77843 105.235 5.43077 81.5884 17.4908 69.9696C22.524 65.1161 34.6576 63.8578 47.0445 82.7405Z" fill="#FFBFA3"/>
    <path d="M17.1709 120.31C15.1854 112.433 12.6852 66.5949 24.2387 66.5949C24.2387 66.5949 26.3549 61.7088 29.6559 61.3248C32.9487 60.9407 46.9697 57.174 48.4813 58.6447C49.9929 60.1155 51.3575 62.0356 51.3575 62.0356C51.3575 62.0356 65.8034 57.1005 73.6882 68.3189C79.5466 76.6531 94.2614 158.116 89.2853 168.713C89.2853 168.713 64.3645 168.713 29.6559 168.713H26.3719H21.4695C14.6959 166.948 11.1579 171.728 6.35352 168.713C6.35352 168.713 19.1564 128.194 17.1709 120.318V120.31Z" fill="#FFBFA3"/>
    <path d="M90.4215 99.1305C90.4215 99.1305 103.25 112.13 103.364 118.201C103.478 124.28 109.149 136.814 105.546 137.116C98.8783 137.68 78.77 133.342 72.6828 122.548C66.5955 111.754 86.1318 95.903 90.4297 99.1305H90.4215Z" fill="#F8A3A2"/>
    <path d="M140.835 48.6517C137.706 49.861 130.948 51.6422 127.451 53.6441C127.419 53.6604 127.394 53.6849 127.37 53.7094C124.739 54.739 117.524 61.7822 116.543 63.4899C115.081 66.031 116.388 65.4999 113.406 72.2408C113.34 72.445 113.283 72.6493 113.226 72.8536H113.21C112.662 73.7033 112.082 74.643 111.469 75.6398C111.396 75.7297 111.339 75.8196 111.289 75.934C107.841 81.5636 103.511 89.0726 99.8667 95.5111C95.3565 102.53 90.7972 109.687 88.2724 115.66C82.8797 128.415 106.461 150.214 114.754 127.246C118.978 115.554 122.279 92.6269 123.619 82.2826C124.216 81.6045 124.82 80.8283 125.409 79.9213C125.409 79.9213 132.313 74.7083 135.377 73.0497C138.441 71.391 137.469 68.5966 136.774 66.3006C136.071 63.9965 136.774 63.1058 134.903 61.2429C133.351 59.6986 132.852 58.2687 132.264 56.9614C135.23 55.842 139.691 53.5215 142.289 51.1275C144.446 49.142 142.232 48.137 140.86 48.6681L140.835 48.6517Z" fill="#FDD7D4"/>
    <path d="M101.052 117.057L100.194 117C100.709 109.254 96.133 103.641 96.084 103.584L96.7458 103.036C96.9419 103.273 101.591 108.96 101.052 117.057Z" fill="#D17F80"/>
    <path d="M48.677 65.9328C57.338 60.2868 66.3177 60.9404 73.3936 67.7222C82.9207 76.8489 97.3503 101.484 97.3503 101.484C93.9022 124.19 82.5612 152.159 82.5612 152.159C66.2441 135.27 46.6424 105.953 41.4295 93.0107C36.2165 80.0682 43.2025 69.4871 48.677 65.9246V65.9328Z" fill="#FFBFA3"/>
    <path d="M255 167.191H0V169.191H255V167.191Z" fill="#F4B7C7"/>
    <defs>
        <clipPath id="clip0_0_1">
            <rect width="156" height="65" fill="white" transform="translate(96)"/>
        </clipPath>
    </defs>
</svg>
