<svg width="255" height="177" viewBox="0 0 255 177" fill="none" xmlns="http://www.w3.org/2000/svg">
<path d="M211.14 5.08594H120.465C117.348 5.08594 114.82 7.60993 114.82 10.7234V29.1334C114.82 32.2469 117.348 34.7709 120.465 34.7709H211.14C214.258 34.7709 216.785 32.2469 216.785 29.1334V10.7234C216.785 7.60993 214.258 5.08594 211.14 5.08594Z" fill="#FFBFA3"/>
<path d="M150.734 32.8903L146.221 67.8336L162.025 32.1396L150.734 32.8903Z" fill="#FFBFA3"/>
<path d="M135.56 17.1118C135.487 16.8935 135.284 16.7442 135.054 16.7403L129.961 16.6982L128.346 11.8765C128.273 11.6582 128.066 11.5088 127.836 11.5088C127.606 11.5088 127.399 11.6582 127.326 11.8765L125.712 16.6982L120.619 16.7403C120.389 16.7403 120.185 16.8935 120.113 17.1118C120.04 17.3301 120.12 17.5714 120.304 17.7093L124.396 20.7348L122.866 25.5834C122.797 25.8017 122.878 26.043 123.062 26.177C123.246 26.3111 123.503 26.3149 123.691 26.177L127.836 23.2242L131.982 26.177C132.074 26.2421 132.185 26.2766 132.293 26.2766C132.4 26.2766 132.515 26.2421 132.607 26.1732C132.795 26.0391 132.872 25.7979 132.803 25.5796L131.272 20.731L135.364 17.7054C135.548 17.5676 135.629 17.3263 135.556 17.108L135.56 17.1118Z" fill="#A5FFD6"/>
<path d="M154.88 17.1118C154.807 16.8935 154.604 16.7442 154.374 16.7403L149.281 16.6982L147.667 11.8765C147.594 11.6582 147.387 11.5088 147.157 11.5088C146.926 11.5088 146.719 11.6582 146.647 11.8765L145.032 16.6982L139.939 16.7403C139.709 16.7403 139.506 16.8935 139.433 17.1118C139.36 17.3301 139.441 17.5714 139.625 17.7093L143.717 20.7348L142.186 25.5834C142.117 25.8017 142.198 26.043 142.382 26.177C142.566 26.3111 142.823 26.3149 143.011 26.177L147.157 23.2242L151.302 26.177C151.394 26.2421 151.505 26.2766 151.613 26.2766C151.72 26.2766 151.835 26.2421 151.927 26.1732C152.115 26.0391 152.192 25.7979 152.123 25.5796L150.593 20.731L154.685 17.7054C154.869 17.5676 154.949 17.3263 154.876 17.108L154.88 17.1118Z" fill="#A5FFD6"/>
<path d="M174.198 17.1118C174.125 16.8935 173.922 16.7442 173.691 16.7403L168.599 16.6982L166.984 11.8765C166.911 11.6582 166.704 11.5088 166.474 11.5088C166.244 11.5088 166.037 11.6582 165.964 11.8765L164.349 16.6982L159.257 16.7403C159.026 16.7403 158.823 16.8935 158.75 17.1118C158.677 17.3301 158.758 17.5714 158.942 17.7093L163.034 20.7348L161.504 25.5834C161.435 25.8017 161.515 26.043 161.699 26.177C161.883 26.3111 162.14 26.3149 162.328 26.177L166.474 23.2242L170.62 26.177C170.712 26.2421 170.823 26.2766 170.93 26.2766C171.038 26.2766 171.153 26.2421 171.245 26.1732C171.433 26.0391 171.509 25.7979 171.44 25.5796L169.91 20.731L174.002 17.7054C174.186 17.5676 174.267 17.3263 174.194 17.108L174.198 17.1118Z" fill="#A5FFD6"/>
<path d="M193.518 17.1118C193.445 16.8935 193.242 16.7442 193.012 16.7403L187.919 16.6982L186.304 11.8765C186.231 11.6582 186.024 11.5088 185.794 11.5088C185.564 11.5088 185.357 11.6582 185.284 11.8765L183.67 16.6982L178.577 16.7403C178.347 16.7403 178.143 16.8935 178.071 17.1118C177.998 17.3301 178.078 17.5714 178.262 17.7093L182.354 20.7348L180.824 25.5834C180.755 25.8017 180.836 26.043 181.02 26.177C181.204 26.3111 181.461 26.3149 181.649 26.177L185.794 23.2242L189.94 26.177C190.032 26.2421 190.143 26.2766 190.251 26.2766C190.358 26.2766 190.473 26.2421 190.565 26.1732C190.753 26.0391 190.83 25.7979 190.761 25.5796L189.23 20.731L193.322 17.7054C193.506 17.5676 193.587 17.3263 193.514 17.108L193.518 17.1118Z" fill="#A5FFD6"/>
<path d="M212.835 17.1118C212.762 16.8935 212.559 16.7442 212.329 16.7403L207.236 16.6982L205.622 11.8765C205.549 11.6582 205.342 11.5088 205.112 11.5088C204.882 11.5088 204.674 11.6582 204.602 11.8765L202.987 16.6982L197.894 16.7403C197.664 16.7403 197.461 16.8935 197.388 17.1118C197.315 17.3301 197.396 17.5714 197.58 17.7093L201.672 20.7348L200.142 25.5834C200.072 25.8017 200.153 26.043 200.337 26.177C200.521 26.3111 200.778 26.3149 200.966 26.177L205.112 23.2242L209.257 26.177C209.349 26.2421 209.461 26.2766 209.568 26.2766C209.675 26.2766 209.79 26.2421 209.882 26.1732C210.07 26.0391 210.147 25.7979 210.078 25.5796L208.548 20.731L212.64 17.7054C212.824 17.5676 212.904 17.3263 212.831 17.108L212.835 17.1118Z" fill="#A5FFD6"/>
<path d="M78.0127 102.436C78.0127 102.436 58.5425 119.701 57.7064 137.992C56.8704 156.284 60.7668 174.839 60.7668 174.839H123.91C123.91 174.839 128.362 141.86 121.685 125.626C115.009 109.395 106.108 93.417 106.108 93.417L78.0127 102.436V102.436Z" fill="#22689E"/>
<path opacity="0.5" d="M123.715 132.474C118.852 139.555 107.926 147.778 98.6376 151.224C98.5724 160.493 97.7096 165.724 95.8496 174.835H123.91C123.91 174.835 127.308 149.658 123.711 132.474H123.715Z" fill="#003154"/>
<path opacity="0.5" d="M81.3188 107.886C88.8584 110.716 97.4219 111.739 105.468 112.321C108.954 112.574 112.444 112.685 115.926 112.662C110.802 101.835 106.108 93.417 106.108 93.417L78.0131 102.436C78.0131 102.436 76.9239 103.405 75.248 105.121C77.2154 106.151 79.2211 107.101 81.315 107.886H81.3188Z" fill="#003154"/>
<path d="M77.3344 106.986C77.3344 106.986 76.8818 107.791 76.1455 109.192" stroke="#3387C1" stroke-width="1.09" stroke-miterlimit="10"/>
<path d="M73.8711 113.673C70.2892 120.995 65.0851 132.906 64.1647 141.998C63.1945 151.577 64.4639 163.158 65.3804 169.611" stroke="#3387C1" stroke-width="1.09" stroke-miterlimit="10"/>
<path d="M65.752 172.094C65.9974 173.656 66.1661 174.564 66.1661 174.564" stroke="#3387C1" stroke-width="1.09" stroke-miterlimit="10"/>
<path d="M77.334 145.254C79.1326 145.664 80.9197 146.124 82.7145 146.56L85.3951 147.242L88.0719 147.939C89.8552 148.403 91.6385 148.885 93.4179 149.364C95.2012 149.839 96.9729 150.344 98.7524 150.831H98.5261C98.9863 150.689 99.4657 150.505 99.9336 150.325C100.401 150.141 100.873 149.954 101.333 149.743C101.797 149.54 102.258 149.329 102.714 149.107C103.174 148.893 103.623 148.659 104.071 148.425C104.524 148.2 104.969 147.951 105.414 147.709C105.862 147.472 106.3 147.215 106.737 146.955C107.174 146.698 107.615 146.445 108.041 146.166L109.333 145.354L110.599 144.504C111.024 144.228 111.435 143.922 111.849 143.627C112.263 143.328 112.681 143.041 113.088 142.734L114.299 141.804L114.909 141.34L115.504 140.858L116.692 139.893C117.091 139.571 117.463 139.222 117.851 138.889L119.013 137.89L117.939 138.985C117.574 139.341 117.222 139.716 116.846 140.061L115.718 141.107L115.155 141.628L114.572 142.129L113.398 143.121C113.003 143.451 112.593 143.757 112.19 144.079C111.784 144.393 111.381 144.714 110.963 145.009L109.713 145.909L108.432 146.767C108.006 147.058 107.565 147.319 107.128 147.591C106.691 147.862 106.25 148.131 105.801 148.38C105.352 148.632 104.911 148.897 104.451 149.13C103.995 149.368 103.538 149.613 103.074 149.831C102.614 150.061 102.146 150.279 101.675 150.49C101.207 150.704 100.727 150.9 100.244 151.095C99.761 151.286 99.2816 151.463 98.7639 151.62L98.6527 151.654L98.5376 151.62C96.7659 151.114 94.9864 150.62 93.2185 150.099C91.4467 149.582 89.6788 149.073 87.9109 148.54L85.2609 147.744L82.6148 146.932C80.8583 146.373 79.0942 145.837 77.3417 145.251L77.334 145.254Z" fill="#003154"/>
<path d="M102.242 113.773C102.611 116.733 102.775 119.717 102.89 122.704C102.917 123.451 102.929 124.198 102.937 124.945C102.944 125.691 102.948 126.438 102.937 127.185C102.929 128.679 102.89 130.172 102.825 131.666C102.798 132.413 102.752 133.16 102.71 133.906C102.66 134.653 102.614 135.4 102.542 136.143C102.407 137.633 102.242 139.119 102.039 140.605C101.943 141.348 101.828 142.087 101.709 142.826C101.587 143.565 101.46 144.304 101.322 145.04C101.18 145.775 101.034 146.51 100.869 147.242C100.716 147.977 100.524 148.701 100.352 149.432L99.7803 148.958C101.709 148.038 103.654 147.146 105.594 146.246L105.379 146.499C105.563 145.848 105.736 145.17 105.893 144.5C106.051 143.826 106.2 143.152 106.338 142.474C106.618 141.118 106.86 139.754 107.074 138.387C107.182 137.702 107.282 137.016 107.374 136.331L107.631 134.27C107.707 133.581 107.788 132.895 107.849 132.202C107.918 131.513 107.972 130.823 108.026 130.13C108.075 129.437 108.121 128.748 108.152 128.054C108.19 127.361 108.21 126.668 108.233 125.975C108.267 124.588 108.263 123.202 108.248 121.816C108.221 120.429 108.171 119.039 108.072 117.656C108.029 116.963 107.964 116.27 107.903 115.581C107.849 114.887 107.761 114.198 107.692 113.505C107.799 114.19 107.922 114.876 108.018 115.565C108.114 116.255 108.202 116.944 108.275 117.637C108.432 119.02 108.536 120.41 108.62 121.804C108.654 122.501 108.693 123.198 108.7 123.895C108.724 124.592 108.72 125.289 108.727 125.986C108.72 126.683 108.72 127.38 108.697 128.077C108.681 128.774 108.654 129.471 108.62 130.168C108.582 130.865 108.547 131.563 108.493 132.256C108.447 132.953 108.386 133.646 108.325 134.343C108.187 135.733 108.01 137.116 107.807 138.498C107.604 139.881 107.37 141.256 107.097 142.627C106.959 143.312 106.818 143.998 106.664 144.68C106.507 145.365 106.346 146.039 106.158 146.725L106.112 146.897L105.943 146.978C104.01 147.889 102.081 148.808 100.137 149.701L99.3623 150.057L99.5656 149.226C99.742 148.506 99.9376 147.789 100.091 147.066C100.26 146.346 100.409 145.618 100.555 144.89C100.701 144.163 100.831 143.431 100.958 142.7C101.08 141.968 101.199 141.237 101.303 140.497C101.518 139.027 101.694 137.552 101.84 136.074C101.989 134.596 102.123 133.114 102.219 131.631C102.323 130.149 102.392 128.659 102.438 127.174C102.488 125.688 102.499 124.198 102.511 122.708C102.519 121.218 102.503 119.728 102.461 118.239C102.415 116.749 102.357 115.259 102.254 113.773H102.242Z" fill="#003154"/>
<path d="M98.9444 151.228C98.9444 151.228 98.9444 151.32 98.952 151.496C98.9559 151.669 98.9674 151.925 98.9635 152.255C98.9635 152.91 98.9712 153.844 98.929 154.966C98.9137 155.525 98.8868 156.134 98.8485 156.774C98.814 157.414 98.7795 158.091 98.7296 158.788C98.6644 159.485 98.5992 160.205 98.5302 160.937C98.4497 161.668 98.396 162.411 98.2847 163.154C98.1812 163.894 98.0738 164.633 97.9703 165.364C97.9166 165.728 97.8629 166.088 97.813 166.444C97.7479 166.8 97.6788 167.149 97.6136 167.494C97.4871 168.183 97.349 168.846 97.2186 169.474C97.0882 170.102 96.9809 170.699 96.8275 171.239C96.5513 172.327 96.2906 173.223 96.1257 173.855C95.9454 174.483 95.8457 174.839 95.8457 174.839C95.8457 174.839 95.9032 174.472 95.9991 173.824C96.1065 173.181 96.2407 172.258 96.4401 171.163C96.5513 170.619 96.6127 170.014 96.6971 169.382C96.7776 168.75 96.8581 168.08 96.9578 167.39C97.0039 167.046 97.0537 166.697 97.0997 166.341C97.1381 165.985 97.1726 165.625 97.211 165.261C97.2877 164.533 97.3682 163.798 97.4487 163.059C97.5446 162.323 97.5868 161.58 97.652 160.853C97.7172 160.125 97.7785 159.409 97.8399 158.716C97.8821 158.022 97.9358 157.352 97.9856 156.717C98.0393 156.081 98.0815 155.479 98.1045 154.924C98.1313 154.369 98.1697 153.859 98.2004 153.408C98.2234 152.956 98.2464 152.565 98.2617 152.239C98.2963 151.588 98.3193 151.221 98.3193 151.221H98.9329L98.9444 151.228Z" fill="#003154"/>
<path d="M79.1055 3.82576C79.1055 3.82576 86.2807 -3.48537 98.9132 2.10617C111.546 7.69772 103.649 31.6341 109.824 39.5197C114.591 45.6092 124.032 54.5709 112.696 66.7536C101.36 78.9363 84.275 60.8748 84.8503 40.8066C85.4255 20.7383 79.1093 3.82193 79.1093 3.82193L79.1055 3.82576Z" fill="#46171F"/>
<path d="M74.945 32.7109C74.945 32.7109 81.6178 53.5682 72.3602 52.9209C63.1025 52.2775 53.8449 53.1354 59.2253 69.0483C64.6097 84.9612 114.346 70.9824 114.346 61.0938C114.346 51.2052 107.673 49.6962 97.5522 53.5682C87.4317 57.4401 91.0941 37.8735 91.0941 37.8735L74.945 32.7148V32.7109Z" fill="#FDD7D4"/>
<path d="M77.2577 46.5214C79.9115 48.8346 82.7264 50.8797 86.3428 51.8755C88.3408 52.4231 90.3427 52.7257 92.3331 52.8176C89.0081 49.0146 91.0905 37.8736 91.0905 37.8736L74.9414 32.7148C74.9414 32.7148 77.4648 40.6005 77.2539 46.5252L77.2577 46.5214Z" fill="#FDD7D4"/>
<path d="M64.3953 20.0225L63.751 38.5128C63.751 38.5128 76.8858 45.395 76.8858 44.7478C76.8858 44.1006 79.6853 27.5481 79.6853 27.5481L64.3991 20.0225H64.3953Z" fill="#003154"/>
<path d="M71.2103 27.5557C71.2103 27.5557 63.6439 28.0612 67.3331 34.6523C71.2218 41.5996 75.3022 37.023 75.3022 37.023L71.2065 27.5557H71.2103Z" fill="#FDD7D4"/>
<path d="M68.7743 28.6241C68.7743 28.6241 68.4867 33.9284 73.9401 36.2225C79.3934 38.5166 71.3553 26.4756 71.3553 26.4756L68.7705 28.6241H68.7743Z" fill="#003154"/>
<path d="M78.1012 10.9918C78.1012 10.9918 99.8801 2.53177 100.567 29.4822C101.211 54.8548 75.5893 47.9726 70.8531 29.9112C66.5003 13.3204 78.1012 10.988 78.1012 10.988V10.9918Z" fill="#FDD7D4"/>
<path d="M72.36 56.1445C72.36 56.1445 77.5258 64.4591 87.861 64.1719C98.1963 63.8846 100.781 52.1309 100.781 52.1309C100.781 52.1309 111.116 48.2589 114.131 55.7156C117.145 63.1723 113.701 103.738 113.701 103.738C113.701 103.738 99.0592 109.9 80.6858 105.316C80.6858 105.316 56.2838 74.0681 57.7181 60.7365C59.1523 47.4049 72.36 56.1484 72.36 56.1484V56.1445Z" fill="#FFBFA3"/>
<path d="M114.46 79.0929C106.185 78.6639 98.0314 78.2465 89.9741 76.1439C82.0165 74.0681 74.615 70.809 67.6392 66.4698C64.3027 64.394 61.0622 62.1842 57.8216 59.9629C57.7833 60.2118 57.7487 60.4684 57.7181 60.7327C56.2838 74.0643 80.6858 105.312 80.6858 105.312C99.0592 109.9 113.701 103.734 113.701 103.734C113.701 103.734 114.744 91.4287 115.181 79.1273C114.944 79.1158 114.702 79.1044 114.464 79.0929H114.46Z" fill="#FFBFA3"/>
<path d="M84.417 36.077L97.3371 34.2119C97.3371 34.2119 94.3228 41.3775 84.417 36.077V36.077Z" fill="white"/>
<path d="M91.0208 24.1816C91.1435 24.488 91.2739 24.7829 91.4005 25.0778C91.5347 25.3689 91.6613 25.66 91.8032 25.9434C91.9374 26.2268 92.0831 26.5063 92.2365 26.7783C92.3822 27.054 92.5471 27.3183 92.7159 27.571C92.8808 27.8315 93.061 28.0766 93.2528 28.314C93.3525 28.4289 93.4445 28.5476 93.5442 28.6625C93.644 28.7774 93.7475 28.8847 93.8549 28.9881C94.0696 29.1949 94.2959 29.394 94.5375 29.574C94.6602 29.6621 94.7829 29.7464 94.9095 29.8268C95.0322 29.9149 95.1703 29.98 95.3007 30.0566L95.734 30.3132L95.3812 30.5813C95.2048 30.7153 95.0245 30.8417 94.8443 30.9681C94.6641 31.0945 94.4838 31.2247 94.2997 31.3472C93.9316 31.5962 93.5596 31.8375 93.1723 32.0634C93.4522 31.7149 93.7513 31.3855 94.0543 31.06C94.2039 30.8953 94.3611 30.7383 94.5145 30.5774C94.6679 30.4166 94.8213 30.2596 94.9824 30.1064L95.0667 30.6311C94.9057 30.5698 94.7408 30.52 94.5835 30.4434C94.4225 30.3783 94.2729 30.2902 94.1233 30.206C93.9776 30.114 93.828 30.026 93.69 29.9225C93.5481 29.823 93.4177 29.7119 93.2873 29.597C93.0342 29.3634 92.7888 29.1183 92.5817 28.8464C92.3746 28.5744 92.1828 28.291 92.0141 28C91.8492 27.7051 91.7073 27.3987 91.5769 27.0923C91.4542 26.7821 91.3506 26.4642 91.2624 26.1425C91.1819 25.8208 91.109 25.4953 91.0707 25.1697C91.0247 24.8442 91.0055 24.511 91.0208 24.1816V24.1816Z" fill="#9D6266"/>
<path d="M91.451 21.7421C91.451 21.7421 91.4779 21.5582 91.5661 21.2518C91.6581 20.9455 91.8039 20.5089 92.057 20.0186C92.3062 19.5246 92.6475 18.9654 93.1461 18.4407C93.3915 18.1765 93.6792 17.9237 94.0166 17.7054C94.3464 17.4833 94.7453 17.3071 95.1748 17.2152C95.6005 17.1233 96.0722 17.1271 96.4864 17.2497C96.9121 17.3531 97.2725 17.5675 97.5793 17.7935C97.8823 18.0271 98.1277 18.2876 98.3348 18.5442C98.4307 18.6782 98.5228 18.8084 98.611 18.931C98.6953 19.0573 98.7605 19.1914 98.8295 19.3101C98.9753 19.5476 99.0712 19.785 99.1555 19.9918C99.2476 20.1948 99.3051 20.3825 99.3511 20.5357C99.4431 20.842 99.4815 21.022 99.4815 21.022C99.4815 21.022 99.3473 20.8918 99.1363 20.6582C99.0328 20.5395 98.9024 20.4016 98.7567 20.2446C98.6071 20.0876 98.4461 19.9114 98.262 19.7352C98.0856 19.5476 97.8708 19.3752 97.6637 19.1876C97.4451 19.0114 97.2112 18.8429 96.9657 18.7012C96.843 18.6361 96.7165 18.5786 96.5899 18.5212C96.4595 18.4867 96.333 18.4254 96.2026 18.4139C95.9456 18.3565 95.6849 18.3603 95.4241 18.4216C95.1595 18.4714 94.8948 18.5786 94.6341 18.7242C94.3771 18.8697 94.124 19.042 93.8862 19.2335C93.6485 19.4212 93.426 19.628 93.2151 19.8271C93.008 20.0301 92.8086 20.2254 92.6322 20.4169C92.2794 20.7961 91.9841 21.1293 91.7732 21.3629C91.5622 21.6004 91.4434 21.7344 91.4434 21.7344L91.451 21.7421Z" fill="#9D6266"/>
<path d="M87.7192 22.7455C87.7192 22.7455 87.5274 22.6306 87.19 22.4468C86.8525 22.2668 86.3731 22.0179 85.7979 21.7613C85.2149 21.5162 84.5361 21.2557 83.7998 21.0987C83.4317 21.0183 83.0558 20.9608 82.6723 20.9455C82.2888 20.9225 81.9053 20.9455 81.5295 21.003C81.1498 21.0528 80.7855 21.1638 80.4289 21.294C80.2486 21.3553 80.0837 21.4472 79.9073 21.5162C79.7424 21.6081 79.5775 21.6962 79.4126 21.7843C79.2554 21.8877 79.0981 21.9872 78.9486 22.0868C78.8028 22.1979 78.6571 22.3051 78.519 22.4085C78.3772 22.5158 78.2544 22.6345 78.1202 22.7417C77.986 22.8451 77.8671 22.9562 77.7521 23.0672C77.522 23.2817 77.3072 23.4847 77.1308 23.6762C76.9467 23.8639 76.7818 24.0247 76.6552 24.1702C76.3983 24.4536 76.2334 24.6107 76.2334 24.6107C76.2334 24.6107 76.2986 24.4 76.4367 24.0362C76.5018 23.8524 76.5977 23.6341 76.7243 23.3928L76.9199 23.0021C76.9966 22.8719 77.0886 22.7341 77.1806 22.5923C77.3532 22.3013 77.5871 22.0102 77.8403 21.7077C77.9783 21.5621 78.1202 21.4166 78.2659 21.2634C78.4232 21.1217 78.5919 20.9838 78.7607 20.8421C78.9371 20.7119 79.1288 20.5855 79.3206 20.4591C79.5238 20.3519 79.7232 20.2255 79.9457 20.1374C80.379 19.9459 80.8507 19.8042 81.3339 19.7276C81.8171 19.6625 82.3042 19.6396 82.7759 19.7008C83.2476 19.7468 83.6963 19.8579 84.1143 20.0034C84.5323 20.1413 84.912 20.3289 85.2571 20.5166C85.6023 20.7119 85.9052 20.9225 86.1775 21.1294C86.7182 21.543 87.1017 21.9528 87.3549 22.2515C87.6041 22.5541 87.7192 22.7455 87.7192 22.7455V22.7455Z" fill="#9D6266"/>
<path d="M86.239 27.6364C86.4039 28.6935 86.1777 29.605 85.7367 29.6739C85.2956 29.7428 84.8048 28.9424 84.6399 27.8854C84.475 26.8283 84.7012 25.9168 85.1422 25.8479C85.5833 25.779 86.0741 26.5794 86.239 27.6364V27.6364Z" fill="#9D6266"/>
<path d="M98.3572 25.4684C98.5221 26.5255 98.2959 27.437 97.8548 27.5059C97.4138 27.5749 96.9229 26.7744 96.758 25.7174C96.5931 24.6604 96.8194 23.7489 97.2604 23.6799C97.7014 23.611 98.1923 24.4114 98.3572 25.4684V25.4684Z" fill="#9D6266"/>
<path d="M85.5673 37.9426C85.5673 37.9426 86.2845 38.2528 87.3544 38.6396C87.8913 38.8311 88.5164 39.0379 89.1914 39.2102C89.5288 39.306 89.8817 39.3634 90.2345 39.4362C90.5911 39.4936 90.9555 39.5511 91.316 39.5626C91.6764 39.5971 92.0369 39.5856 92.3897 39.5626C92.7387 39.5166 93.0839 39.486 93.406 39.3902C93.5709 39.3519 93.7243 39.2945 93.8739 39.2447C94.0311 39.1987 94.1692 39.1298 94.3111 39.0647C94.4568 39.0073 94.5795 38.923 94.7099 38.8541C94.8441 38.789 94.9592 38.7047 95.0704 38.6281C95.3043 38.4826 95.4884 38.3064 95.6725 38.1647C95.8336 38.0038 95.9908 37.8736 96.1058 37.7511C96.3321 37.506 96.4702 37.3643 96.4702 37.3643C96.4702 37.3643 96.3935 37.5404 96.2439 37.8506C96.1634 38.0038 96.0522 38.1762 95.9179 38.383C95.7684 38.5707 95.6111 38.8043 95.3887 39.0034C95.1778 39.2217 94.9208 39.4324 94.6255 39.62C94.476 39.7119 94.3226 39.8115 94.1538 39.8881C93.9889 39.9762 93.8125 40.0451 93.6284 40.1064C93.2641 40.2405 92.873 40.3285 92.4741 40.3822C92.0753 40.4205 91.6649 40.4434 91.2584 40.4128C90.4492 40.3554 89.6631 40.1754 88.9651 39.9264C88.6123 39.8115 88.2863 39.6622 87.9795 39.5205C87.6727 39.3788 87.3928 39.2256 87.1397 39.0762C86.1195 38.4864 85.5635 37.9311 85.5635 37.9311L85.5673 37.9426Z" fill="#9D6266"/>
<path d="M61.5957 4.75641C61.5957 4.75641 66.5466 -1.90748 79.4667 1.5317C92.3867 4.97088 84.851 27.9805 71.2867 30.9907C57.7223 34.001 67.9157 41.1704 74.8072 37.7312C74.8072 37.7312 85.1118 48.0909 77.1005 56.1488C70.3433 62.9468 68.4181 52.0624 62.6043 54.0003C56.7904 55.9344 57.078 63.2455 60.5219 72.2762C60.5219 72.2762 44.8061 71.2 46.0946 57.225C47.387 43.25 61.8104 42.6027 58.7961 25.403C55.7818 8.20326 61.5957 4.76024 61.5957 4.76024V4.75641Z" fill="#46171F"/>
<path d="M60.5176 72.2724C60.5176 72.2724 42.0521 70.2197 44.169 56.3442C46.2898 42.4687 60.7247 42.6794 58.7381 25.3303C56.7516 7.98117 62.7572 4.88667 62.7572 4.88667C62.7572 4.88667 68.0955 -1.47466 80.7893 2.72282" fill="#46171F"/>
<path d="M70.3506 32.4962C70.3506 32.4962 85.8516 29.7732 85.8516 9.99219Z" fill="#46171F"/>
<path d="M141.044 38.7306C140.182 38.3016 138.674 40.4502 138.674 40.4502C138.674 40.4502 140.611 36.5782 139.537 36.1493C138.46 35.7203 137.386 38.7306 137.386 38.7306C137.386 38.7306 138.464 35.0769 137.171 34.8586C135.879 34.6441 134.157 39.5884 134.157 39.5884C134.157 39.5884 137.815 28.4092 136.308 28.4092C135.848 28.4092 134.153 31.5994 132.017 36.0305C131.403 35.1765 130.13 34.3607 128.343 38.0833C127.058 40.7565 127.476 42.7902 128.224 44.1574C124.09 53.215 119.948 62.8087 119.948 62.8087C119.948 62.8087 128.128 72.9156 131.791 66.0334C135.449 59.1512 141.911 39.1557 141.048 38.7267L141.044 38.7306Z" fill="#FDD7D4"/>
<path d="M124.132 53.2607C121.731 58.6723 119.944 62.8123 119.944 62.8123C119.944 62.8123 128.124 72.9192 131.787 66.037C133.079 63.6089 134.721 59.5417 136.266 55.2791C132.197 54.7199 128.121 54.1148 124.132 53.2607V53.2607Z" fill="#B4CADB"/>
<path d="M129.393 36.3482C129.658 35.9537 130.026 35.6167 130.49 35.4291C130.724 35.3525 130.977 35.2988 131.23 35.341C131.292 35.3486 131.357 35.3563 131.418 35.3678L131.595 35.4329C131.717 35.4712 131.825 35.5325 131.928 35.6052C132.036 35.6703 132.139 35.7393 132.227 35.8274C132.316 35.9116 132.419 35.9882 132.5 36.0801C132.653 36.2716 132.829 36.4478 132.952 36.6584C133.232 37.0644 133.462 37.4742 133.7 37.8878C133.934 38.3052 134.16 38.7265 134.367 39.1631C134.471 39.3814 134.571 39.6036 134.655 39.8333C134.735 40.067 134.82 40.3006 134.839 40.584C134.839 40.7219 134.847 40.9019 134.697 41.0704C134.54 41.2351 134.333 41.2427 134.191 41.2312C133.903 41.1968 133.669 41.101 133.443 40.9976C132.994 40.787 132.584 40.5342 132.178 40.2738L132.373 39.9061C132.55 39.9904 132.695 40.0785 132.845 40.1857C132.994 40.2853 133.129 40.404 133.267 40.5189C133.389 40.6453 133.527 40.764 133.635 40.9057C133.746 41.0436 133.861 41.1814 133.953 41.3385L134.095 41.5644L134.206 41.8095L134.314 42.0546L134.386 42.3112L134.459 42.5678C134.475 42.6559 134.482 42.744 134.494 42.8321C134.513 43.0083 134.548 43.1806 134.532 43.3568C134.525 43.533 134.525 43.7091 134.513 43.8815L134.421 44.3947C134.398 44.567 134.34 44.7317 134.291 44.8964L134.126 45.3866L133.907 45.8538C133.83 46.007 133.769 46.1679 133.681 46.3134C133.504 46.6083 133.324 46.8955 133.144 47.1828C133.294 46.8764 133.439 46.57 133.593 46.2713C133.666 46.1181 133.715 45.9572 133.777 45.8002L133.953 45.3291L134.076 44.8428C134.118 44.6819 134.168 44.5211 134.179 44.3564L134.241 43.8623C134.241 43.6976 134.237 43.533 134.233 43.3683C134.241 43.2036 134.199 43.0427 134.176 42.8819C134.16 42.8015 134.149 42.721 134.133 42.6406L134.057 42.4108L133.98 42.181L133.873 41.9627L133.765 41.7444L133.631 41.5415C133.55 41.4036 133.439 41.281 133.336 41.1585C133.236 41.0321 133.106 40.9325 132.994 40.8176C132.868 40.718 132.745 40.6146 132.607 40.5265C132.477 40.4346 132.331 40.3542 132.201 40.2891L132.396 39.9214C132.795 40.1742 133.198 40.4155 133.616 40.607C133.823 40.6989 134.038 40.7831 134.222 40.8061C134.314 40.8138 134.371 40.7946 134.379 40.7831C134.398 40.7755 134.417 40.6951 134.409 40.5993C134.402 40.4078 134.333 40.1819 134.256 39.9712C134.176 39.7568 134.087 39.5423 133.991 39.3278C133.8 38.8989 133.585 38.4776 133.366 38.0601L133.037 37.432C132.929 37.2176 132.806 37.0223 132.688 36.8231C132.58 36.6163 132.423 36.4478 132.289 36.2601C132.216 36.1682 132.128 36.0993 132.051 36.015C131.974 35.9269 131.882 35.8618 131.79 35.8005C131.698 35.7316 131.606 35.6703 131.499 35.632L131.345 35.5631L131.184 35.5286C130.966 35.4712 130.739 35.5018 130.517 35.5554C130.08 35.6933 129.689 35.992 129.382 36.352L129.393 36.3482Z" fill="#9D6266"/>
<path d="M134.091 41.9784C134.21 42.1201 134.348 42.2427 134.497 42.3423C134.578 42.3844 134.651 42.438 134.735 42.4648C134.816 42.5031 134.9 42.5223 134.988 42.5338C135.073 42.5529 135.161 42.5338 135.245 42.5338C135.326 42.5031 135.41 42.4916 135.487 42.4495C135.56 42.3997 135.64 42.3691 135.701 42.3116L135.893 42.1355L136.054 41.9248C136.112 41.8597 136.162 41.7831 136.204 41.7065L136.338 41.4767C136.388 41.404 136.415 41.3159 136.457 41.2355C136.53 41.0708 136.614 40.9137 136.668 40.7376L136.852 40.2282L137.143 40.3508C136.906 40.8946 136.683 41.4576 136.503 42.0206C136.415 42.304 136.338 42.5874 136.292 42.8708C136.269 43.0125 136.254 43.1504 136.258 43.2806C136.258 43.4108 136.288 43.5295 136.33 43.5831C136.338 43.5908 136.361 43.6138 136.353 43.6061L136.399 43.6329C136.399 43.6329 136.399 43.6253 136.392 43.6253C136.399 43.6253 136.438 43.6253 136.484 43.6023C136.576 43.5602 136.679 43.4682 136.775 43.3725C136.967 43.1695 137.14 42.9321 137.301 42.687C137.627 42.1967 137.914 41.6644 138.175 41.1359L138.555 41.2852C138.374 41.8329 138.217 42.3997 138.102 42.9665C138.045 43.2499 137.995 43.5333 137.972 43.8168C137.96 43.9585 137.96 44.1002 137.972 44.2304C137.983 44.3644 138.014 44.4946 138.075 44.5789C138.106 44.6172 138.137 44.6517 138.183 44.6631C138.183 44.6631 138.225 44.6746 138.194 44.6708H138.359C138.409 44.6517 138.451 44.6517 138.509 44.6172C138.562 44.5789 138.624 44.5597 138.674 44.51C138.884 44.3376 139.072 44.1155 139.233 43.8742C139.559 43.3916 139.824 42.8631 140.062 42.327C139.889 42.8938 139.663 43.4414 139.372 43.9623C139.299 44.0925 139.214 44.2189 139.13 44.3453C139.038 44.4678 138.938 44.5865 138.819 44.69C138.766 44.7474 138.689 44.7857 138.62 44.8317C138.551 44.8776 138.443 44.9006 138.355 44.9274H138.19C138.125 44.9274 138.129 44.9197 138.098 44.9121C137.999 44.8853 137.914 44.8163 137.853 44.7436C137.738 44.5904 137.699 44.4219 137.676 44.2648C137.653 44.1078 137.65 43.9508 137.653 43.7976C137.661 43.4912 137.696 43.1925 137.742 42.8976C137.845 42.3078 137.987 41.7295 138.16 41.155L138.539 41.3044C138.275 41.8597 137.987 42.3959 137.65 42.9167C137.481 43.1772 137.301 43.4299 137.071 43.6636C136.955 43.7785 136.833 43.8972 136.649 43.9814C136.56 44.0236 136.442 44.0542 136.304 44.0351C136.265 44.0274 136.223 44.0121 136.188 44.0006L136.135 43.9699C136.058 43.924 136.031 43.8895 135.989 43.8436C135.851 43.6521 135.836 43.4568 135.828 43.2882C135.828 43.1159 135.847 42.955 135.874 42.798C135.932 42.484 136.024 42.1891 136.123 41.898C136.323 41.3159 136.568 40.7606 136.844 40.2129L137.136 40.3354L136.921 40.8525C136.856 41.0248 136.76 41.1895 136.676 41.358C136.63 41.4384 136.595 41.5265 136.541 41.6031L136.384 41.8406C136.292 42.0052 136.146 42.1393 136.024 42.281L135.797 42.461C135.721 42.5223 135.625 42.5529 135.54 42.5989C135.452 42.641 135.349 42.6487 135.257 42.6716C135.161 42.6678 135.057 42.6793 134.965 42.6525C134.869 42.6295 134.777 42.6027 134.697 42.5567C134.608 42.5223 134.536 42.4572 134.459 42.4036C134.317 42.2848 134.19 42.147 134.087 41.9938L134.091 41.9784Z" fill="#9D6266"/>
<path d="M55.1377 67.328C55.1377 67.328 69.492 108.326 82.2664 113.198L88.5826 101.444C88.5826 101.444 73.2235 65.7501 67.6244 61.5948C62.0253 57.4394 55.1377 67.328 55.1377 67.328Z" fill="#FDD7D4"/>
<path d="M69.2811 84.1984C72.5639 82.609 75.2714 80.3303 77.5148 77.6035C73.7297 70.0779 69.8832 63.2684 67.6244 61.5948C62.0253 57.4394 55.1377 67.328 55.1377 67.328C55.1377 67.328 58.2325 76.1673 62.8268 86.121C65.032 85.7687 67.1987 85.2057 69.2811 84.1984V84.1984Z" fill="#B4CADB"/>
<path d="M68.1992 56.1446C68.1992 56.1446 60.8782 48.1173 55.2791 56.7191C49.68 65.3209 59.5858 83.0951 59.5858 83.0951C59.5858 83.0951 69.0582 81.95 77.5297 73.7771C77.5297 73.7771 71.9306 60.1582 68.1992 56.1446V56.1446Z" fill="#FFBFA3"/>
<path d="M130.878 57.602L100.548 62.4861C99.3748 62.675 98.5772 63.7778 98.7663 64.9493L106.125 110.521C106.314 111.693 107.418 112.489 108.591 112.301L138.921 107.416C140.094 107.228 140.892 106.125 140.703 104.953L133.345 59.3811C133.155 58.2096 132.051 57.4131 130.878 57.602Z" fill="#DDD3D3"/>
<path d="M140.458 105.289L110.131 110.168C108.958 110.356 107.853 109.559 107.661 108.387L100.306 62.8161C100.291 62.728 100.294 62.6399 100.291 62.5557C99.259 62.8544 98.584 63.8693 98.7604 64.9531L106.116 110.524C106.304 111.696 107.408 112.493 108.586 112.305L138.913 107.426C139.998 107.25 140.754 106.292 140.711 105.224C140.627 105.247 140.546 105.277 140.458 105.293V105.289Z" fill="#A39D9C"/>
<path d="M120.593 78.3799C120.704 76.216 121.456 75.3697 121.467 75.3582L121.229 75.1322L120.995 74.9062C120.946 74.9599 120.041 75.9365 119.933 78.4259C119.918 78.4259 119.902 78.4259 119.887 78.4297C117.456 78.8203 115.803 81.1067 116.194 83.5348C116.585 85.963 118.875 87.6136 121.306 87.223C123.737 86.8323 125.39 84.5459 124.999 82.1178C124.646 79.9272 122.744 78.3722 120.589 78.3761L120.593 78.3799Z" fill="white"/>
<path d="M119.979 76.649C119.979 76.649 119.653 73.5928 115.588 75.5077C115.588 75.5077 117.306 78.3417 119.979 76.649Z" fill="white"/>
<path d="M106.234 73.635C106.234 73.635 124.178 76.6453 107.239 71.1993C107.239 71.1993 102.645 69.1924 96.616 73.9223C91.1895 78.181 77.3145 95.3769 74.4268 106.522C77.8361 110.918 81.3988 113.986 84.5588 113.63C91.55 112.845 103.22 81.5206 103.22 81.5206C103.22 81.5206 120.301 88.6862 104.366 78.9393C104.366 78.9393 128.768 86.9666 105.946 76.2163C105.946 76.2163 127.909 81.3751 106.234 73.635V73.635Z" fill="#FDD7D4"/>
<path d="M255 175H0V177H255V175Z" fill="#F4B7C7"/>
</svg>
